<svg width="190" height="124" viewBox="0 0 190 124" fill="none" xmlns="http://www.w3.org/2000/svg">
<path d="M2.45324 21.2082L2.90693 21.6967L2.90987 21.694L2.92011 21.6845L2.96195 21.646C2.99925 21.6117 3.0552 21.5605 3.12899 21.4935C3.27658 21.3594 3.49552 21.162 3.77929 20.9104C4.34687 20.4071 5.17357 19.6871 6.20727 18.8225C8.27541 17.0928 11.1685 14.7878 14.4702 12.4842C17.7738 10.1792 21.474 7.88441 25.1572 6.16808C28.8503 4.44715 32.4728 3.33334 35.6355 3.33334C41.9344 3.33334 46.7319 7.74479 51.773 12.426L51.8722 12.5181C56.7849 17.0803 61.9478 21.8749 68.8177 21.8749C75.6877 21.8749 80.8506 17.0803 85.7633 12.5181L85.8625 12.426C90.9036 7.74479 95.7011 3.33334 102 3.33334C108.299 3.33334 113.096 7.74479 118.138 12.426L118.237 12.5181C123.149 17.0804 128.312 21.8749 135.182 21.8749C142.052 21.8749 147.215 17.0804 152.128 12.5181L152.227 12.426C157.268 7.74479 162.066 3.33334 168.365 3.33334C171.527 3.33334 175.15 4.44715 178.843 6.16808C182.526 7.88441 186.226 10.1792 189.53 12.4842C192.832 14.7878 195.725 17.0928 197.793 18.8225C198.826 19.6871 199.653 20.4071 200.221 20.9104C200.504 21.162 200.723 21.3594 200.871 21.4935C200.945 21.5605 201.001 21.6117 201.038 21.646L201.08 21.6845L201.093 21.6962L201.547 21.2082L201.958 20.7651C202 20.7195 202 20.7194 202 20.7194L201.996 20.7158L201.985 20.7051L201.94 20.6641C201.901 20.6282 201.843 20.5753 201.768 20.5066C201.616 20.3691 201.393 20.1681 201.105 19.9127C200.529 19.402 199.693 18.6735 198.648 17.7997C196.559 16.0529 193.635 13.7225 190.293 11.3907C186.953 9.06032 183.183 6.71972 179.406 4.95951C175.638 3.20389 171.809 2 168.365 2C161.495 2 156.332 6.79458 151.419 11.3568L151.32 11.4489C146.279 16.1301 141.481 20.5416 135.182 20.5416C128.883 20.5416 124.086 16.1301 119.045 11.4489L118.946 11.3568C114.033 6.79458 108.87 2 102 2C95.13 2 89.9671 6.79458 85.0544 11.3568L84.9553 11.4489C79.9141 16.1301 75.1166 20.5416 68.8177 20.5416C62.5189 20.5416 57.7214 16.1301 52.6802 11.4489L52.5811 11.3568C47.6683 6.79457 42.5055 2 35.6355 2C32.1906 2 28.3616 3.20389 24.5941 4.95951C20.8167 6.71972 17.0473 9.06032 13.7073 11.3907C10.3652 13.7225 7.44059 16.0529 5.35192 17.7997C4.30722 18.6735 3.47074 19.402 2.89475 19.9127C2.60673 20.1681 2.38378 20.3691 2.23243 20.5066C2.15675 20.5753 2.09897 20.6282 2.0599 20.6641L2.01542 20.7051L2.00085 20.7186C2.00085 20.7186 1.99962 20.7197 2.45324 21.2082Z" stroke="#C5F0FF" stroke-width="3"/>
<path d="M2.45324 54.5837L2.90693 55.0722L2.90987 55.0695L2.92011 55.06L2.96195 55.0215C2.99925 54.9872 3.0552 54.936 3.12899 54.8689C3.27658 54.7348 3.49552 54.5374 3.77929 54.2858C4.34687 53.7826 5.17357 53.0625 6.20727 52.198C8.27541 50.4683 11.1685 48.1633 14.4702 45.8597C17.7738 43.5547 21.474 41.2599 25.1572 39.5435C28.8503 37.8226 32.4728 36.7088 35.6355 36.7088C41.9344 36.7088 46.7319 41.1203 51.773 45.8015L51.8722 45.8936C56.7849 50.4558 61.9478 55.2504 68.8177 55.2504C75.6877 55.2504 80.8506 50.4558 85.7633 45.8936L85.8625 45.8015C90.9036 41.1203 95.7011 36.7088 102 36.7088C108.299 36.7088 113.096 41.1203 118.138 45.8015L118.237 45.8936C123.149 50.4558 128.312 55.2504 135.182 55.2504C142.052 55.2504 147.215 50.4558 152.128 45.8936L152.227 45.8015C157.268 41.1203 162.066 36.7088 168.365 36.7088C171.527 36.7088 175.15 37.8226 178.843 39.5435C182.526 41.2599 186.226 43.5547 189.53 45.8597C192.832 48.1633 195.725 50.4683 197.793 52.198C198.826 53.0625 199.653 53.7826 200.221 54.2858C200.504 54.5374 200.723 54.7348 200.871 54.8689C200.945 54.936 201.001 54.9872 201.038 55.0215L201.08 55.06L201.093 55.0717L201.547 54.5837C202 54.0952 202 54.0948 202 54.0948L201.996 54.0912L201.985 54.0806L201.94 54.0396C201.901 54.0037 201.843 53.9508 201.768 53.882C201.616 53.7445 201.393 53.5436 201.105 53.2882C200.529 52.7774 199.693 52.0489 198.648 51.1752C196.559 49.4283 193.635 47.098 190.293 44.7662C186.953 42.4358 183.183 40.0952 179.406 38.335C175.638 36.5794 171.809 35.3755 168.365 35.3755C161.495 35.3755 156.332 40.17 151.419 44.7323L151.32 44.8244C146.279 49.5056 141.481 53.917 135.182 53.917C128.883 53.917 124.086 49.5056 119.045 44.8244L118.946 44.7323C114.033 40.17 108.87 35.3755 102 35.3755C95.13 35.3755 89.9671 40.17 85.0544 44.7323L84.9553 44.8244C79.9141 49.5056 75.1166 53.917 68.8177 53.917C62.5189 53.917 57.7214 49.5056 52.6802 44.8244L52.5811 44.7323C47.6683 40.17 42.5055 35.3755 35.6355 35.3755C32.1906 35.3755 28.3616 36.5794 24.5941 38.335C20.8167 40.0952 17.0473 42.4358 13.7073 44.7662C10.3652 47.098 7.44059 49.4283 5.35192 51.1752C4.30722 52.0489 3.47074 52.7774 2.89475 53.2882C2.60673 53.5436 2.38378 53.7445 2.23243 53.882C2.15675 53.9508 2.09897 54.0037 2.0599 54.0396L2.01542 54.0806L2.0039 54.0912L2.00085 54.094C2.00085 54.094 1.99962 54.0952 2.45324 54.5837Z" stroke="#C5F0FF" stroke-width="3"/>
<path d="M2.90693 88.4474L2.45324 87.9589C1.99962 87.4704 2.00001 87.47 2.00001 87.47L2.0039 87.4664L2.01542 87.4558L2.0599 87.4148C2.09897 87.3789 2.15675 87.326 2.23243 87.2573C2.38378 87.1198 2.60673 86.9188 2.89475 86.6634C3.47074 86.1527 4.30722 85.4241 5.35192 84.5504C7.44059 82.8035 10.3652 80.4732 13.7073 78.1414C17.0473 75.811 20.8167 73.4704 24.5941 71.7102C28.3616 69.9546 32.1906 68.7507 35.6355 68.7507C42.5055 68.7507 47.6683 73.5453 52.5811 78.1075L52.6802 78.1996C57.7214 82.8808 62.5189 87.2923 68.8177 87.2923C75.1166 87.2923 79.9141 82.8808 84.9553 78.1996L85.0544 78.1075C89.9671 73.5453 95.13 68.7507 102 68.7507C108.87 68.7507 114.033 73.5453 118.946 78.1075L119.045 78.1996C124.086 82.8808 128.883 87.2923 135.182 87.2923C141.481 87.2923 146.279 82.8808 151.32 78.1996L151.419 78.1075C156.332 73.5453 161.495 68.7507 168.365 68.7507C171.809 68.7507 175.638 69.9546 179.406 71.7102C183.183 73.4704 186.953 75.811 190.293 78.1414C193.635 80.4732 196.559 82.8035 198.648 84.5504C199.693 85.4241 200.529 86.1527 201.105 86.6634C201.393 86.9188 201.616 87.1198 201.768 87.2573C201.843 87.326 201.901 87.3789 201.94 87.4148L201.985 87.4558L201.999 87.4693C201.999 87.4693 202 87.4704 201.547 87.9589L201.093 88.4474L201.09 88.4447L201.08 88.4352L201.038 88.3967L201.011 88.3716L200.957 88.322C200.931 88.2991 200.903 88.2731 200.871 88.2441C200.723 88.11 200.504 87.9127 200.221 87.6611C199.653 87.1578 198.826 86.4377 197.793 85.5732C195.725 83.8435 192.832 81.5385 189.53 79.2349C186.226 76.9299 182.526 74.6351 178.843 72.9188C175.15 71.1978 171.527 70.084 168.365 70.084C162.066 70.084 157.268 74.4955 152.227 79.1767L152.128 79.2688C147.215 83.831 142.052 88.6256 135.182 88.6256C128.312 88.6256 123.149 83.831 118.237 79.2688L118.138 79.1767C113.096 74.4955 108.299 70.084 102 70.084C95.7011 70.084 90.9036 74.4955 85.8625 79.1767L85.7633 79.2688C80.8506 83.831 75.6877 88.6256 68.8177 88.6256C61.9478 88.6256 56.7849 83.831 51.8722 79.2688L51.773 79.1767C46.7319 74.4955 41.9344 70.084 35.6355 70.084C32.4728 70.084 28.8503 71.1978 25.1572 72.9188C21.474 74.6351 17.7738 76.9299 14.4702 79.2349C11.1685 81.5385 8.27541 83.8435 6.20727 85.5732C5.17357 86.4377 4.34687 87.1578 3.77929 87.6611C3.49552 87.9127 3.27658 88.11 3.12899 88.2441C3.0552 88.3112 2.99925 88.3624 2.96195 88.3967L2.92011 88.4352L2.90693 88.4474Z" stroke="#C5F0FF" stroke-width="3"/>
<path d="M2.45324 121.333L2.90693 121.822L2.92011 121.81L2.96195 121.771C2.99925 121.737 3.0552 121.686 3.12899 121.619C3.27658 121.484 3.49552 121.287 3.77929 121.035C4.34687 120.532 5.17357 119.812 6.20727 118.948C8.27541 117.218 11.1685 114.913 14.4702 112.609C17.7738 110.304 21.474 108.009 25.1572 106.293C28.8503 104.572 32.4728 103.458 35.6355 103.458C41.9344 103.458 46.7319 107.87 51.773 112.551L51.8722 112.643C56.7849 117.205 61.9478 122 68.8177 122C75.6877 122 80.8506 117.205 85.7633 112.643L85.8625 112.551C90.9036 107.87 95.7011 103.458 102 103.458C108.299 103.458 113.096 107.87 118.138 112.551L118.237 112.643C123.149 117.205 128.312 122 135.182 122C142.052 122 147.215 117.205 152.128 112.643L152.227 112.551C157.268 107.87 162.066 103.458 168.365 103.458C171.527 103.458 175.15 104.572 178.843 106.293C182.526 108.009 186.226 110.304 189.53 112.609C192.832 114.913 195.725 117.218 197.793 118.948C198.826 119.812 199.653 120.532 200.221 121.035C200.504 121.287 200.723 121.484 200.871 121.619C200.945 121.686 201.001 121.737 201.038 121.771L201.08 121.81L201.09 121.819L201.093 121.821L201.547 121.333C202 120.845 202 120.844 202 120.844L201.996 120.841L201.985 120.83L201.94 120.789C201.901 120.753 201.843 120.7 201.768 120.632C201.616 120.494 201.393 120.293 201.105 120.038C200.529 119.527 199.693 118.799 198.648 117.925C196.559 116.178 193.635 113.848 190.293 111.516C186.953 109.185 183.183 106.845 179.406 105.085C175.638 103.329 171.809 102.125 168.365 102.125C161.495 102.125 156.332 106.92 151.419 111.482L151.32 111.574C146.279 116.255 141.481 120.667 135.182 120.667C128.883 120.667 124.086 116.255 119.045 111.574L118.946 111.482C114.033 106.92 108.87 102.125 102 102.125C95.13 102.125 89.9671 106.92 85.0544 111.482L84.9553 111.574C79.9141 116.255 75.1166 120.667 68.8177 120.667C62.5189 120.667 57.7214 116.255 52.6802 111.574L52.5811 111.482C47.6683 106.92 42.5055 102.125 35.6355 102.125C32.1906 102.125 28.3616 103.329 24.5941 105.085C20.8167 106.845 17.0473 109.185 13.7073 111.516C10.3652 113.848 7.44059 116.178 5.35192 117.925C4.30722 118.799 3.47074 119.527 2.89475 120.038C2.60673 120.293 2.38378 120.494 2.23243 120.632C2.15675 120.7 2.09897 120.753 2.0599 120.789L2.01542 120.83L2.0039 120.841L2.00085 120.844C2.00085 120.844 1.99962 120.845 2.45324 121.333Z" stroke="#C5F0FF" stroke-width="3"/>
</svg>
