<svg width="328" height="848" viewBox="0 0 328 848" fill="none" xmlns="http://www.w3.org/2000/svg">
<path d="M290.038 592.125C393.272 573.189 372.503 701.099 349.214 767.421C319.41 873.27 215.248 781.523 166.893 722.418C126.286 664.471 66.8394 531.422 153.903 462.806C240.966 394.19 235.099 455.499 221.283 494.731C201.187 535.086 186.804 611.061 290.038 592.125Z" stroke="#70D6F8" stroke-width="4"/>
<path d="M160.957 237.101C214.957 99.1007 310.79 93.934 351.957 108.601C389.457 164.601 445.557 313.601 369.957 461.601C294.357 609.601 162.457 548.601 105.957 499.601C53.9569 456.434 -36.8431 360.601 15.9569 322.601C81.9569 275.101 93.4569 409.601 160.957 237.101Z" fill="url(#paint0_linear_521_535)"/>
<path d="M211.94 33.9297C211.94 101.028 126.216 114.093 83.3541 112.239C-20.1311 104.109 54.2902 168.725 260.38 173.86C425.252 177.968 373.406 90.8431 326.875 46.7673C288.563 14.5306 211.94 -33.1683 211.94 33.9297Z" fill="url(#paint1_linear_521_535)"/>
<defs>
<linearGradient id="paint0_linear_521_535" x1="344" y1="197.101" x2="225" y2="555.101" gradientUnits="userSpaceOnUse">
<stop stop-color="#38B5DF"/>
<stop offset="1" stop-color="#81D4EF"/>
</linearGradient>
<linearGradient id="paint1_linear_521_535" x1="255.536" y1="147.757" x2="93.6761" y2="27.3847" gradientUnits="userSpaceOnUse">
<stop stop-color="#3F8FAA"/>
<stop offset="1" stop-color="#3F8FAA" stop-opacity="0"/>
</linearGradient>
</defs>
</svg>
