<svg width="1230" height="361" viewBox="0 0 1230 361" fill="none" xmlns="http://www.w3.org/2000/svg">
<path d="M902.497 247.319C1050 188.723 1182.29 192.064 1230 201.059V309H0C120.068 236.525 298.182 229.329 368.255 247.319C484.877 271.734 754.996 305.916 902.497 247.319Z" fill="url(#paint0_linear_521_808)"/>
<path d="M1022.52 112.345C1121.16 65.1432 1247.03 66.9172 1297.64 73.7045C1467.76 361.73 1197.36 388.735 1164.27 307.707C1137.79 242.885 1061.79 246.736 1027.1 256.765C967.493 269.932 828.113 281.06 747.42 220.236C666.727 159.411 759.212 157.144 815.54 163.614C843.435 166.192 923.885 159.548 1022.52 112.345Z" fill="url(#paint1_linear_521_808)"/>
<path d="M891.758 259.671C831.522 319.029 736.5 267.247 696.519 233.937C572.951 131.915 679.36 181.374 748.01 218.855C773.589 234.213 824.829 248.561 825.165 183.093C825.502 117.626 867.736 123.539 888.811 134.679C914.892 151.611 951.994 200.313 891.758 259.671Z" stroke="#70D6F8" stroke-width="4"/>
<defs>
<linearGradient id="paint0_linear_521_808" x1="376.5" y1="253" x2="1018.5" y2="309" gradientUnits="userSpaceOnUse">
<stop stop-color="#81D4EF"/>
<stop offset="1" stop-color="#38B5DF"/>
</linearGradient>
<linearGradient id="paint1_linear_521_808" x1="1212.61" y1="279.929" x2="719.672" y2="151.091" gradientUnits="userSpaceOnUse">
<stop stop-color="#3F8FAA"/>
<stop offset="1" stop-color="#3F8FAA" stop-opacity="0"/>
</linearGradient>
</defs>
</svg>
