<svg width="285" height="387" viewBox="0 0 285 387" fill="none" xmlns="http://www.w3.org/2000/svg">
<g filter="url(#filter0_b_521_3486)">
<path d="M100.027 239.514C74.7057 278.292 -10.1029 264.97 -49.342 253.462C-35.6623 167.691 -8.37106 11.0731 -8.64374 70.7717C-8.91641 130.47 37.2123 122.678 60.3108 111.319C79.5796 98.3437 137.362 89.6172 214.342 158.512C291.322 227.407 233.497 225.553 194.962 216.015C173.868 207.69 125.349 200.736 100.027 239.514Z" fill="url(#paint0_linear_521_3486)"/>
</g>
<path d="M-9.64777 215.642C3.66678 172.444 38.4892 201.284 54.2361 221.104C64.2319 237.114 78.4395 271.313 55.303 280.031C26.3824 290.928 73.313 327.828 53.2081 329.866C37.1242 331.497 23.1989 321.046 18.2467 315.616C3.40085 300.291 -22.9623 258.841 -9.64777 215.642Z" stroke="#70D6F8" stroke-width="4"/>
<path d="M79.9026 83.524C40.6342 68.3284 40.1437 109.033 44.807 131.285C53.6341 182.427 189.924 164.369 186.981 108.795C184.626 64.336 157.918 76.0568 144.858 87.4746C139.568 92.4892 119.171 98.7196 79.9026 83.524Z" fill="url(#paint1_linear_521_3486)"/>
<defs>
<filter id="filter0_b_521_3486" x="-69.3419" y="37.5332" width="341.6" height="247.812" filterUnits="userSpaceOnUse" color-interpolation-filters="sRGB">
<feFlood flood-opacity="0" result="BackgroundImageFix"/>
<feGaussianBlur in="BackgroundImage" stdDeviation="10"/>
<feComposite in2="SourceAlpha" operator="in" result="effect1_backgroundBlur_521_3486"/>
<feBlend mode="normal" in="SourceGraphic" in2="effect1_backgroundBlur_521_3486" result="shape"/>
</filter>
<linearGradient id="paint0_linear_521_3486" x1="17.704" y1="135.316" x2="154.55" y2="189.184" gradientUnits="userSpaceOnUse">
<stop stop-color="#38B5DF"/>
<stop offset="1" stop-color="#81D4EF"/>
</linearGradient>
<linearGradient id="paint1_linear_521_3486" x1="60.7773" y1="130.962" x2="187.863" y2="87.5078" gradientUnits="userSpaceOnUse">
<stop stop-color="#3F8FAA"/>
<stop offset="1" stop-color="#3CABCF" stop-opacity="0"/>
</linearGradient>
</defs>
</svg>
