<svg width="34" height="34" viewBox="0 0 34 34" fill="none" xmlns="http://www.w3.org/2000/svg">
<path d="M21.25 17C21.25 17.8406 21.0007 18.6623 20.5337 19.3612C20.0667 20.0601 19.403 20.6048 18.6264 20.9265C17.8498 21.2482 16.9953 21.3323 16.1709 21.1683C15.3464 21.0044 14.5892 20.5996 13.9948 20.0052C13.4004 19.4108 12.9956 18.6536 12.8317 17.8291C12.6677 17.0047 12.7518 16.1502 13.0735 15.3736C13.3952 14.597 13.9399 13.9333 14.6388 13.4663C15.3377 12.9993 16.1594 12.75 17 12.75C18.1268 12.7513 19.207 13.1995 20.0038 13.9962C20.8005 14.793 21.2487 15.8732 21.25 17ZM30.2812 11.1562V22.8438C30.279 24.8156 29.4947 26.7061 28.1004 28.1004C26.7061 29.4947 24.8156 30.279 22.8438 30.2812H11.1562C9.18439 30.279 7.29394 29.4947 5.89963 28.1004C4.50531 26.7061 3.721 24.8156 3.71875 22.8438V11.1562C3.721 9.18439 4.50531 7.29394 5.89963 5.89963C7.29394 4.50531 9.18439 3.721 11.1562 3.71875H22.8438C24.8156 3.721 26.7061 4.50531 28.1004 5.89963C29.4947 7.29394 30.279 9.18439 30.2812 11.1562ZM23.375 17C23.375 15.7391 23.0011 14.5066 22.3006 13.4582C21.6001 12.4099 20.6045 11.5928 19.4396 11.1103C18.2747 10.6278 16.9929 10.5015 15.7563 10.7475C14.5197 10.9935 13.3838 11.6006 12.4922 12.4922C11.6006 13.3838 10.9935 14.5197 10.7475 15.7563C10.5015 16.9929 10.6278 18.2747 11.1103 19.4396C11.5928 20.6045 12.4099 21.6001 13.4582 22.3006C14.5066 23.0011 15.7391 23.375 17 23.375C18.6902 23.3731 20.3106 22.7008 21.5057 21.5057C22.7008 20.3106 23.3731 18.6902 23.375 17ZM25.5 10.0938C25.5 9.77854 25.4065 9.4704 25.2314 9.20831C25.0563 8.94622 24.8074 8.74194 24.5162 8.62132C24.2249 8.50069 23.9045 8.46913 23.5953 8.53062C23.2862 8.59212 23.0022 8.74391 22.7793 8.9668C22.5564 9.18969 22.4046 9.47367 22.3431 9.78282C22.2816 10.092 22.3132 10.4124 22.4338 10.7037C22.5544 10.9949 22.7587 11.2438 23.0208 11.4189C23.2829 11.594 23.591 11.6875 23.9062 11.6875C24.3289 11.6875 24.7343 11.5196 25.0332 11.2207C25.3321 10.9218 25.5 10.5164 25.5 10.0938Z" fill="#FF6939"/>
</svg>
