<svg width="33" height="33" viewBox="0 0 33 33" fill="none" xmlns="http://www.w3.org/2000/svg">
<g clip-path="url(#clip0_521_709)">
<path fill-rule="evenodd" clip-rule="evenodd" d="M32.2438 8.1785C32.472 7.42775 32.2438 6.875 31.1506 6.875H27.5413C26.6228 6.875 26.1993 7.35213 25.9696 7.87875C25.9696 7.87875 24.134 12.2732 21.5339 15.1277C20.6924 15.9555 20.3101 16.2181 19.8509 16.2181C19.6213 16.2181 19.2761 15.9555 19.2761 15.2034V8.1785C19.2761 7.2765 19.0231 6.875 18.2586 6.875H12.5826C12.0093 6.875 11.6641 7.293 11.6641 7.69037C11.6641 8.54425 12.9649 8.74225 13.0983 11.1458V16.368C13.0983 17.5134 12.8879 17.721 12.4286 17.721C11.2049 17.721 8.228 13.3059 6.46113 8.25412C6.11875 7.271 5.77225 6.875 4.84963 6.875H1.2375C0.20625 6.875 0 7.35213 0 7.87875C0 8.8165 1.22375 13.475 5.69938 19.6364C8.68313 23.8439 12.8838 26.125 16.7104 26.125C19.0053 26.125 19.2885 25.619 19.2885 24.7459V21.5655C19.2885 20.5521 19.5058 20.35 20.2331 20.35C20.7694 20.35 21.6865 20.614 23.8288 22.6421C26.2763 25.047 26.6791 26.125 28.0569 26.125H31.6663C32.6975 26.125 33.2145 25.619 32.9175 24.618C32.5903 23.6225 31.4215 22.1774 29.8719 20.4627C29.0304 19.4865 27.7681 18.4346 27.3845 17.908C26.8496 17.2329 27.0023 16.9317 27.3845 16.3309C27.3845 16.3309 31.7845 10.2451 32.2424 8.1785H32.2438Z" fill="#FF6939"/>
</g>
<defs>
<clipPath id="clip0_521_709">
<rect width="33" height="33" fill="white"/>
</clipPath>
</defs>
</svg>
