<svg width="30" height="30" viewBox="0 0 30 30" fill="none" xmlns="http://www.w3.org/2000/svg">
<g clip-path="url(#clip0_521_705)">
<path d="M29.3758 8.13409C29.2059 7.52813 28.875 6.97952 28.4183 6.54659C27.9486 6.10034 27.373 5.78113 26.7458 5.61909C24.3983 5.00034 14.9933 5.00034 14.9933 5.00034C11.0724 4.95573 7.15256 5.15193 3.25577 5.58784C2.62851 5.76186 2.05398 6.0882 1.58327 6.53784C1.12077 6.98284 0.785771 7.53159 0.610771 8.13284C0.190388 10.3975 -0.0138635 12.697 0.000771479 15.0003C-0.0142285 17.3016 0.189521 19.6003 0.610771 21.8678C0.782021 22.4666 1.11577 23.0128 1.57952 23.4541C2.04327 23.8953 2.62077 24.2141 3.25577 24.3828C5.63452 25.0003 14.9933 25.0003 14.9933 25.0003C18.9191 25.045 22.844 24.8488 26.7458 24.4128C27.373 24.2508 27.9486 23.9316 28.4183 23.4853C28.8808 23.0441 29.2095 22.4953 29.3745 21.8978C29.8059 19.634 30.0156 17.3336 30.0008 15.0291C30.0332 12.7148 29.8237 10.4035 29.3758 8.13284V8.13409ZM12.0033 19.2803V10.7216L19.8283 15.0016L12.0033 19.2803Z" fill="#FF6939"/>
</g>
<defs>
<clipPath id="clip0_521_705">
<rect width="30" height="30" fill="white"/>
</clipPath>
</defs>
</svg>
