<svg width="410" height="379" viewBox="0 0 410 379" fill="none" xmlns="http://www.w3.org/2000/svg">
<path d="M5.07549 132.366C-74.0988 130.217 -92.097 66.5599 -91.1993 35L-139 257.934C-136.756 319.487 -113.955 423.388 -40.7054 346.57C32.5442 269.752 87.8854 307.624 97.9842 338.512C108.382 366.951 157.903 399.215 287.168 362.686C448.748 317.025 439.322 259.948 326.216 257.934C213.11 255.919 194.259 242.49 155.21 198.171C116.162 153.853 104.043 135.052 5.07549 132.366Z" fill="url(#paint0_linear_521_554)"/>
<path d="M36.5437 62.0192C96.3813 118.483 49.6597 194.81 18.8192 225.917C-4.02305 254.583 -41.4148 246.168 -22.2637 184.075C-3.11267 121.983 -79.894 147.075 -100.765 124.279C-117.462 106.043 -102.102 78.3637 -92.3346 66.8039C-74.3074 41.6826 -23.2938 5.55584 36.5437 62.0192Z" stroke="#70D6F8" stroke-width="4"/>
<path d="M40.6019 271.012C96.7968 281.144 130.663 224.327 140.572 194.651C161.327 126.039 201.629 258.62 190.191 315.115C181.041 360.312 161.217 342.75 152.45 328.319C133.515 300.412 88.1473 259.68 58.1552 320.002C28.163 380.324 3.35482 353.145 -5.30027 332.015C-13.4141 307.459 -15.593 260.88 40.6019 271.012Z" fill="url(#paint1_linear_521_554)"/>
<defs>
<linearGradient id="paint0_linear_521_554" x1="18" y1="341" x2="288.5" y2="246.5" gradientUnits="userSpaceOnUse">
<stop stop-color="#38B5DF"/>
<stop offset="1" stop-color="#81D4EF"/>
</linearGradient>
<linearGradient id="paint1_linear_521_554" x1="56.2191" y1="256.576" x2="181.449" y2="351.093" gradientUnits="userSpaceOnUse">
<stop stop-color="#3F8FAA"/>
<stop offset="1" stop-color="#3F8FAA" stop-opacity="0"/>
</linearGradient>
</defs>
</svg>
