<svg width="242" height="264" viewBox="0 0 242 264" fill="none" xmlns="http://www.w3.org/2000/svg">
<path d="M95 186C109.8 122 37.5 46.3333 -0.5 16.5L-36 301.5C56.8333 308.5 242.3 312.5 241.5 272.5C240.7 232.5 213.113 231 197.5 235C157.167 245.333 80.2 250 95 186Z" fill="url(#paint0_linear_521_20166)"/>
<path d="M57.9231 161.24C9.75427 132.97 54.0566 99.7653 69.829 70.5181C80.4784 50.7707 122.167 -50.8141 7.28308 75.7785C-84.624 177.053 -25.4485 192.442 20.7307 193.772C53.1986 194.707 106.092 189.51 57.9231 161.24Z" fill="url(#paint1_linear_521_20166)"/>
<path d="M40.51 186.06C84.7069 128.211 121.295 175.984 134.065 207.101C176.569 315.121 118.01 320.294 79.2925 302.233C47.9496 287.612 -3.68688 243.908 40.51 186.06Z" stroke="#70D6F8" stroke-width="4"/>
<defs>
<linearGradient id="paint0_linear_521_20166" x1="31.5" y1="273.5" x2="215.5" y2="237.5" gradientUnits="userSpaceOnUse">
<stop stop-color="#38B5DF"/>
<stop offset="1" stop-color="#81D4EF"/>
</linearGradient>
<linearGradient id="paint1_linear_521_20166" x1="-13.3251" y1="153.277" x2="94.5737" y2="15.2922" gradientUnits="userSpaceOnUse">
<stop stop-color="#3F8FAA"/>
<stop offset="1" stop-color="#3F8FAA" stop-opacity="0"/>
</linearGradient>
</defs>
</svg>
