<svg width="269" height="401" viewBox="0 0 269 401" fill="none" xmlns="http://www.w3.org/2000/svg">
<path d="M80.507 86.4662C42.6878 7.74032 -37.7465 -3.46718 -73.2362 0.769802L-109 179.543C-50.901 215.763 92.6749 280.575 202.186 250.068C311.697 219.562 262.341 197.995 223.973 191.024C191.909 188.974 118.326 165.192 80.507 86.4662Z" fill="url(#paint0_linear_521_550)"/>
<path d="M138.634 137.618C111.897 47.5902 27.2296 74.0486 -11.7619 98.5313C-52.2103 121.553 -16.0467 129.886 7.0911 131.175C47.2252 133.322 118.667 140.281 83.3602 150.933C48.0536 161.585 68.6492 185.151 83.3602 195.603C112.925 213.786 165.371 227.645 138.634 137.618Z" fill="url(#paint1_linear_521_550)"/>
<path d="M52.9235 252.585C27.4692 197.157 -19.2299 183.387 -39.3976 183.431C-158.437 178.631 -55.7592 272.406 10.4594 319.894C48.6264 341.844 125.907 371.06 129.695 312.33C133.483 253.6 112.35 267.38 101.31 281.611C95.7872 295.031 78.3777 308.014 52.9235 252.585Z" stroke="#70D6F8" stroke-width="4"/>
<defs>
<linearGradient id="paint0_linear_521_550" x1="-108.589" y1="171.343" x2="130.242" y2="155.682" gradientUnits="userSpaceOnUse">
<stop stop-color="#38B5DF"/>
<stop offset="1" stop-color="#81D4EF"/>
</linearGradient>
<linearGradient id="paint1_linear_521_550" x1="75.219" y1="168.114" x2="124.659" y2="94.7769" gradientUnits="userSpaceOnUse">
<stop stop-color="#3F8FAA"/>
<stop offset="1" stop-color="#3F8FAA" stop-opacity="0"/>
</linearGradient>
</defs>
</svg>
