<svg width="183" height="127" viewBox="0 0 183 127" fill="none" xmlns="http://www.w3.org/2000/svg">
<path d="M114.509 67C29.2468 86.2 2.64378 30 0 -0.5L163.088 -20L221.668 77.4731C227.203 82.7047 230.072 88.3201 231 93L221.668 77.4731C207.492 64.073 175.83 53.1912 114.509 67Z" fill="url(#paint0_linear_521_20243)"/>
<path d="M77.7636 41.4943C81.7447 65.6117 53.3776 80.5246 38.6964 84.9664C27.4544 89.4319 24.5097 92.7901 41.3546 110.91C54.8305 125.405 62.9738 119.049 68.0396 113.324C82.252 97.2636 116.783 62.0493 141.206 49.6767C165.629 37.3042 142.303 28.058 127.587 24.9815C109.32 20.4369 73.7825 17.3769 77.7636 41.4943Z" fill="url(#paint1_linear_521_20243)"/>
<path d="M165.767 109.008C113.545 111.111 84.931 55.7196 77.1521 27.7609C50.3395 -68.6075 130.684 -5.76402 168.369 35.7166C189.261 59.2709 217.99 106.905 165.767 109.008Z" stroke="#70D6F8" stroke-width="3"/>
<defs>
<linearGradient id="paint0_linear_521_20243" x1="125" y1="0.999998" x2="60.5" y2="67.5" gradientUnits="userSpaceOnUse">
<stop stop-color="#38B5DF"/>
<stop offset="1" stop-color="#81D4EF"/>
</linearGradient>
<linearGradient id="paint1_linear_521_20243" x1="116.066" y1="19.0009" x2="42.0422" y2="114.642" gradientUnits="userSpaceOnUse">
<stop stop-color="#3F8FAA"/>
<stop offset="1" stop-color="#3F8FAA" stop-opacity="0"/>
</linearGradient>
</defs>
</svg>
