<svg width="250" height="208" viewBox="0 0 250 208" fill="none" xmlns="http://www.w3.org/2000/svg">
<path d="M28.7298 72.3303C-14.5349 71.1561 -24.3699 36.3708 -23.8794 19.125L-50 140.947C-48.7737 174.582 -36.3142 231.359 3.71288 189.382C43.74 147.405 73.9811 168.1 79.4995 184.979C85.1815 200.519 112.242 218.149 182.878 198.188C271.174 173.237 266.023 142.048 204.216 140.947C142.41 139.846 132.109 132.507 110.771 108.29C89.4328 84.0721 82.8105 73.798 28.7298 72.3303Z" fill="url(#paint0_linear_521_4539)"/>
<path d="M45.9287 33.8909C78.6268 64.7451 53.0959 106.454 36.2432 123.452C23.7611 139.117 3.32839 134.519 13.7935 100.588C24.2585 66.6578 -17.6985 80.3695 -29.1034 67.9128C-38.2273 57.9474 -29.8338 42.8223 -24.4966 36.5054C-14.6457 22.778 13.2306 3.03657 45.9287 33.8909Z" stroke="#70D6F8" stroke-width="2.8561"/>
<path d="M48.1413 148.095C78.8489 153.632 97.3553 122.584 102.77 106.368C114.111 68.8744 136.134 141.323 129.884 172.195C124.884 196.893 114.051 187.296 109.26 179.41C98.9134 164.161 74.1224 141.902 57.7333 174.865C41.3441 207.828 27.7877 192.976 23.0582 181.43C18.6244 168.011 17.4337 142.558 48.1413 148.095Z" fill="url(#paint1_linear_521_4539)"/>
<defs>
<linearGradient id="paint0_linear_521_4539" x1="35.7923" y1="186.338" x2="183.607" y2="134.699" gradientUnits="userSpaceOnUse">
<stop stop-color="#38B5DF"/>
<stop offset="1" stop-color="#81D4EF"/>
</linearGradient>
<linearGradient id="paint1_linear_521_4539" x1="56.6753" y1="140.206" x2="125.107" y2="191.855" gradientUnits="userSpaceOnUse">
<stop stop-color="#3F8FAA"/>
<stop offset="1" stop-color="#3F8FAA" stop-opacity="0"/>
</linearGradient>
</defs>
</svg>
