<svg width="265" height="329" viewBox="0 0 265 329" fill="none" xmlns="http://www.w3.org/2000/svg">
<g filter="url(#filter0_b_521_4472)">
<path d="M141.175 210.661C157.355 253.74 242.483 259.143 283.024 256.46C288.288 170.321 295.658 12.5314 283.024 70.488C270.391 128.445 227.337 110.921 207.39 94.9141C191.506 78.1674 137.352 57.2201 47.8092 107.405C-41.7333 157.589 14.7479 168.285 54.1813 167.36C76.4376 163.844 124.995 167.582 141.175 210.661Z" fill="url(#paint0_linear_521_4472)"/>
</g>
<path d="M252.699 211.204C249.12 166.432 209.117 186.879 189.563 202.699C176.41 216.066 155.242 246.164 175.797 259.618C201.491 276.435 148.004 302.082 167.062 308.402C182.308 313.458 198.071 306.331 204.047 302.135C221.756 290.48 256.279 255.976 252.699 211.204Z" stroke="#70D6F8" stroke-width="2.26525"/>
<path d="M194.396 63.7247C235.763 57.4715 227.444 97.0545 218.114 117.628C198.504 165.319 70.2268 118.361 85.0881 65.0991C96.9772 22.4898 120.347 39.6274 130.546 53.5223C134.593 59.5286 153.029 69.9779 194.396 63.7247Z" fill="url(#paint1_linear_521_4472)"/>
<defs>
<filter id="filter0_b_521_4472" x="-11.3263" y="46.6737" width="312.653" height="221.684" filterUnits="userSpaceOnUse" color-interpolation-filters="sRGB">
<feFlood flood-opacity="0" result="BackgroundImageFix"/>
<feGaussianBlur in="BackgroundImage" stdDeviation="5.66313"/>
<feComposite in2="SourceAlpha" operator="in" result="effect1_backgroundBlur_521_4472"/>
<feBlend mode="normal" in="SourceGraphic" in2="effect1_backgroundBlur_521_4472" result="shape"/>
</filter>
<linearGradient id="paint0_linear_521_4472" x1="243.527" y1="127.392" x2="99.1708" y2="150.07" gradientUnits="userSpaceOnUse">
<stop stop-color="#38B5DF"/>
<stop offset="1" stop-color="#81D4EF"/>
</linearGradient>
<linearGradient id="paint1_linear_521_4472" x1="202.695" y1="113.863" x2="88.8322" y2="44.2634" gradientUnits="userSpaceOnUse">
<stop stop-color="#3F8FAA"/>
<stop offset="1" stop-color="#3CABCF" stop-opacity="0"/>
</linearGradient>
</defs>
</svg>
