<svg width="248" height="356" viewBox="0 0 248 356" fill="none" xmlns="http://www.w3.org/2000/svg">
<path d="M80.4507 76.8589C46.8336 6.88029 -24.6635 -3.08194 -56.21 0.684268L-88 159.594C-36.3564 191.789 91.2666 249.4 188.61 222.283C285.953 195.166 242.08 175.995 207.976 169.799C179.475 167.977 114.068 146.837 80.4507 76.8589Z" fill="url(#paint0_linear_521_4060)"/>
<path d="M132.119 122.326C108.353 42.3017 33.0934 65.8203 -1.56574 87.5827C-37.5198 108.047 -5.37443 115.454 15.1925 116.599C50.8673 118.508 114.371 124.693 82.9873 134.162C51.6037 143.63 69.9108 164.578 82.9873 173.869C109.267 190.031 155.886 202.35 132.119 122.326Z" fill="url(#paint1_linear_521_4060)"/>
<path d="M55.9304 224.519C33.3044 175.249 -8.20583 163.01 -26.1327 163.049C-131.945 158.782 -40.6763 242.138 18.1846 284.349C52.1109 303.86 120.805 329.83 124.172 277.626C127.539 225.422 108.754 237.67 98.9408 250.32C94.0316 262.249 78.5565 273.789 55.9304 224.519Z" stroke="#70D6F8" stroke-width="4"/>
<defs>
<linearGradient id="paint0_linear_521_4060" x1="-87.6346" y1="152.305" x2="124.66" y2="138.384" gradientUnits="userSpaceOnUse">
<stop stop-color="#38B5DF"/>
<stop offset="1" stop-color="#81D4EF"/>
</linearGradient>
<linearGradient id="paint1_linear_521_4060" x1="75.7507" y1="149.434" x2="119.697" y2="84.2455" gradientUnits="userSpaceOnUse">
<stop stop-color="#3F8FAA"/>
<stop offset="1" stop-color="#3F8FAA" stop-opacity="0"/>
</linearGradient>
</defs>
</svg>
