<svg width="34" height="34" viewBox="0 0 34 34" fill="none" xmlns="http://www.w3.org/2000/svg">
<path d="M4.68633 1.2172L16.9983 13.5292L29.2597 1.26787C29.4745 1.03915 29.7334 0.856189 30.0207 0.729947C30.308 0.603705 30.6179 0.536786 30.9317 0.533203C31.6035 0.533203 32.2479 0.800107 32.723 1.2752C33.1981 1.75029 33.465 2.39465 33.465 3.06654C33.4709 3.37713 33.4133 3.68565 33.2957 3.97317C33.178 4.26069 33.0029 4.52114 32.781 4.73854L20.393 16.9999L32.781 29.3879C33.1985 29.7963 33.4434 30.3495 33.465 30.9332C33.465 31.6051 33.1981 32.2494 32.723 32.7245C32.2479 33.1996 31.6035 33.4665 30.9317 33.4665C30.6088 33.4799 30.2867 33.426 29.9858 33.3083C29.6848 33.1905 29.4117 33.0115 29.1837 32.7825L16.9983 20.4705L4.71166 32.7572C4.49761 32.9783 4.24189 33.1548 3.95927 33.2766C3.67664 33.3983 3.37271 33.4629 3.065 33.4665C2.39311 33.4665 1.74875 33.1996 1.27366 32.7245C0.798566 32.2494 0.531662 31.6051 0.531662 30.9332C0.525756 30.6226 0.583382 30.3141 0.701003 30.0266C0.818624 29.739 0.99376 29.4786 1.21566 29.2612L13.6037 16.9999L1.21566 4.61187C0.798131 4.20339 0.553296 3.65025 0.531662 3.06654C0.531662 2.39465 0.798566 1.75029 1.27366 1.2752C1.74875 0.800107 2.39311 0.533203 3.065 0.533203C3.673 0.540803 4.25566 0.786536 4.68633 1.2172Z" fill="white"/>
</svg>
