<svg width="23" height="23" viewBox="0 0 23 23" fill="none" xmlns="http://www.w3.org/2000/svg">
<path d="M6.70833 10.541H8.625V12.4577H6.70833V10.541ZM20.125 5.74935V19.166C20.125 20.2202 19.2625 21.0827 18.2083 21.0827H4.79167C4.28333 21.0827 3.79582 20.8807 3.43638 20.5213C3.07693 20.1619 2.875 19.6743 2.875 19.166L2.88458 5.74935C2.88458 4.69518 3.72792 3.83268 4.79167 3.83268H5.75V1.91602H7.66667V3.83268H15.3333V1.91602H17.25V3.83268H18.2083C19.2625 3.83268 20.125 4.69518 20.125 5.74935ZM4.79167 7.66602H18.2083V5.74935H4.79167V7.66602ZM18.2083 19.166V9.58268H4.79167V19.166H18.2083ZM14.375 12.4577H16.2917V10.541H14.375V12.4577ZM10.5417 12.4577H12.4583V10.541H10.5417V12.4577Z" fill="black"/>
</svg>
