<svg width="19" height="19" viewBox="0 0 19 19" fill="none" xmlns="http://www.w3.org/2000/svg">
<path d="M8.35413 4.93949L5.67592 1.84804C5.36717 1.49179 4.80113 1.49337 4.44251 1.85279L2.24009 4.05916C1.58459 4.71545 1.39697 5.68999 1.77617 6.47137C4.04162 11.162 7.82454 14.9502 12.512 17.2222C13.2925 17.6014 14.2663 17.4138 14.9218 16.7575L17.1448 14.5305C17.505 14.1703 17.5058 13.6011 17.1464 13.2924L14.043 10.6284C13.7185 10.3497 13.2142 10.3862 12.8888 10.7123L11.809 11.7937C11.7537 11.8517 11.6809 11.8899 11.6018 11.9025C11.5227 11.915 11.4417 11.9013 11.3712 11.8634C9.60611 10.847 8.14196 9.38093 7.12784 7.61454C7.08986 7.54388 7.07611 7.46272 7.08869 7.38349C7.10128 7.30427 7.1395 7.23136 7.19751 7.17595L8.27417 6.09849C8.60034 5.77074 8.63597 5.26408 8.35413 4.9387V4.93949Z" stroke="black" stroke-width="1.5" stroke-linecap="round" stroke-linejoin="round"/>
</svg>
