<svg width="18" height="18" viewBox="0 0 18 18" fill="none" xmlns="http://www.w3.org/2000/svg">
<path d="M15.9613 6.20743L11.4983 5.5588L9.50314 1.51407C9.44865 1.40333 9.359 1.31368 9.24825 1.25919C8.97052 1.12208 8.63302 1.23633 8.49415 1.51407L6.49903 5.5588L2.03595 6.20743C1.9129 6.22501 1.8004 6.28301 1.71427 6.3709C1.61014 6.47793 1.55276 6.62192 1.55474 6.77123C1.55671 6.92054 1.61789 7.06296 1.72482 7.16719L4.95392 10.3154L4.19103 14.7609C4.17314 14.8644 4.18458 14.9707 4.22406 15.068C4.26354 15.1652 4.32948 15.2494 4.41439 15.3111C4.49931 15.3728 4.5998 15.4094 4.70448 15.4169C4.80917 15.4243 4.91385 15.4023 5.00665 15.3533L8.99864 13.2545L12.9906 15.3533C13.0996 15.4113 13.2262 15.4307 13.3475 15.4096C13.6533 15.3568 13.859 15.0668 13.8063 14.7609L13.0434 10.3154L16.2725 7.16719C16.3604 7.08106 16.4184 6.96856 16.436 6.84551C16.4834 6.5379 16.269 6.25313 15.9613 6.20743Z" fill="#FFE81B"/>
</svg>
